<?xml version="1.0" encoding="utf-8"?>
<!-- Generator: Adobe Illustrator 18.1.1, SVG Export Plug-In . SVG Version: 6.00 Build 0)  -->
<svg version="1.1" xmlns="http://www.w3.org/2000/svg" xmlns:xlink="http://www.w3.org/1999/xlink" x="0px" y="0px"
	 viewBox="0 0 255 255" enable-background="new 0 0 255 255" xml:space="preserve">
<g id="preview" display="none">
</g>
<g id="Layer_1">
	<g id="Question-Mark_3">
	</g>
	<g>
		<path fill="#3B52A0" d="M127.5,7.5c-66.3,0-120,53.7-120,120c0,66.3,53.7,120,120,120s120-53.7,120-120
			C247.5,61.2,193.8,7.5,127.5,7.5z M127.5,243.5c-31,0-60.1-12.1-82-34c-21.9-21.9-34-51-34-82s12.1-60.1,34-82
			c21.9-21.9,51-34,82-34s60.1,12.1,82,34c21.9,21.9,34,51,34,82s-12.1,60.1-34,82C187.6,231.4,158.5,243.5,127.5,243.5z"/>
		<path fill="#3B52A0" d="M157,172.5c0-0.7,0.1-1.4,0.3-2H69.5v-56h28.8c-1.8,4-2.8,8.4-2.8,13c0,17.6,14.4,32,32,32s32-14.4,32-32
			c0-4.6-1-9-2.8-13h28.8v27.8c0.6-0.2,1.3-0.3,2-0.3s1.4,0.1,2,0.3V82.5c0-1.1-0.9-2-2-2h-120c-1.1,0-2,0.9-2,2v90c0,1.1,0.9,2,2,2
			h89.8C157.1,173.9,157,173.2,157,172.5z M185.5,84.5v26h-30.9c-5.7-9-15.7-15-27.1-15s-21.4,6-27.1,15H69.5v-26H185.5z
			 M127.5,155.5c-15.4,0-28-12.6-28-28s12.6-28,28-28s28,12.6,28,28S142.9,155.5,127.5,155.5z"/>
		<path fill="#3B52A0" d="M127.5,110.5c-9.4,0-17,7.6-17,17s7.6,17,17,17s17-7.6,17-17S136.9,110.5,127.5,110.5z M127.5,140.5
			c-7.2,0-13-5.8-13-13s5.8-13,13-13s13,5.8,13,13S134.7,140.5,127.5,140.5z"/>
		<path fill="#3B52A0" d="M82.5,101c1.9,0,3.5-1.6,3.5-3.5S84.4,94,82.5,94S79,95.6,79,97.5S80.6,101,82.5,101z"/>
		<path fill="#3B52A0" d="M212,172.5c0-1.1-0.9-2-2-2h-20.5V150c0-1.1-0.9-2-2-2s-2,0.9-2,2v20.5H165c-1.1,0-2,0.9-2,2s0.9,2,2,2
			h20.5V195c0,1.1,0.9,2,2,2s2-0.9,2-2v-20.5H210C211.1,174.5,212,173.6,212,172.5z"/>
	</g>
</g>
<g id="Layer_4">
</g>
</svg>
