<?xml version="1.0" encoding="utf-8"?>
<!-- Generator: Adobe Illustrator 18.1.1, SVG Export Plug-In . SVG Version: 6.00 Build 0)  -->
<svg version="1.1" xmlns="http://www.w3.org/2000/svg" xmlns:xlink="http://www.w3.org/1999/xlink" x="0px" y="0px"
	 viewBox="0 0 255 255" enable-background="new 0 0 255 255" xml:space="preserve">
<g id="preview">
	<rect y="0" fill="#0A7DD2" width="255" height="255"/>
</g>
<g id="Layer_1">
	<g id="Question-Mark_3">
	</g>
	<g>
		<path fill="#FFFFFF" d="M127.5,7.5c-66.3,0-120,53.7-120,120c0,66.3,53.7,120,120,120c66.3,0,120-53.7,120-120
			C247.5,61.2,193.8,7.5,127.5,7.5z M208.1,208.1c-21.5,21.5-50.2,33.4-80.6,33.4c-30.5,0-59.1-11.9-80.6-33.4
			c-21.5-21.5-33.4-50.2-33.4-80.6s11.9-59.1,33.4-80.6S97,13.5,127.5,13.5s59.1,11.9,80.6,33.4c21.5,21.5,33.4,50.2,33.4,80.6
			C241.5,158,229.6,186.6,208.1,208.1z"/>
		<path fill="#FFFFFF" d="M192.5,64.5l-130,0c-7.2,0-13,5.8-13,13V155c0,7.2,5.8,13,13,13H72v0h22.5v15v9.5c0,7.2,5.8,13,13,13h40
			c7.2,0,13-5.8,13-13V183v-15h30v0h2c7.2,0,13-5.8,13-13V77.5C205.5,70.3,199.7,64.5,192.5,64.5z M147.5,199.5h-40
			c-3.9,0-7-3.1-7-7V183h54v9.5C154.5,196.4,151.4,199.5,147.5,199.5z M154.5,177h-54v-54h54V177z M184.5,162h-24v-45v-2
			c0-7.2-5.8-13-13-13h-40c-7.2,0-13,5.8-13,13v2v45H78V70.5h106.5V162z M154.5,117h-54v-2c0-3.9,3.1-7,7-7h40c3.9,0,7,3.1,7,7V117z
			 M62.5,162c-3.9,0-7-3.1-7-7V77.5c0-3.9,3.1-7,7-7H72V162H62.5z M199.5,155c0,3.9-3.1,7-7,7l0,3v-3h-2V70.5h2c3.9,0,7,3.1,7,7V155
			z"/>
		<path fill="#FFFFFF" d="M127.5,186.1c-2.7,0-4.9,2.2-4.9,4.9s2.2,4.9,4.9,4.9s4.9-2.2,4.9-4.9S130.2,186.1,127.5,186.1z"/>
		<path fill="#FFFFFF" d="M63.7,111.4c-2.7,0-4.9,2.2-4.9,4.9c0,2.7,2.2,4.9,4.9,4.9s4.9-2.2,4.9-4.9
			C68.5,113.6,66.4,111.4,63.7,111.4z"/>
	</g>
</g>
<g id="Layer_4" display="none">
	<g display="inline" opacity="0.2">
		<circle fill="#FFFFFF" cx="127.5" cy="127.5" r="120"/>
	</g>
</g>
</svg>
