<?xml version="1.0" encoding="utf-8"?>
<!-- Generator: Adobe Illustrator 18.1.1, SVG Export Plug-In . SVG Version: 6.00 Build 0)  -->
<svg version="1.1" xmlns="http://www.w3.org/2000/svg" xmlns:xlink="http://www.w3.org/1999/xlink" x="0px" y="0px"
	 viewBox="0 0 255 255" enable-background="new 0 0 255 255" xml:space="preserve">
<g id="preview" display="none">
</g>
<g id="Layer_1">
	<g id="Question-Mark_3">
	</g>
	<g>
		<path fill="#3B52A0" d="M127.5,7.5c-66.3,0-120,53.7-120,120s53.7,120,120,120s120-53.7,120-120S193.8,7.5,127.5,7.5z
			 M190.5,175.5V195c0,1.7-1.3,3-3,3s-3-1.3-3-3v-19.5H165c-1.7,0-3-1.3-3-3s1.3-3,3-3h19.5V150c0-1.7,1.3-3,3-3s3,1.3,3,3v19.5H210
			c1.7,0,3,1.3,3,3s-1.3,3-3,3H190.5z M67.5,175.5c-1.7,0-3-1.3-3-3v-90c0-1.7,1.3-3,3-3h120c1.7,0,3,1.3,3,3v56.9
			c-1-0.3-2-0.4-3-0.4s-2,0.2-3,0.4v-23.9h-26.3c1.5,3.7,2.3,7.8,2.3,12c0,18.2-14.8,33-33,33s-33-14.8-33-33c0-4.2,0.8-8.3,2.3-12
			H70.5v54h83.9c-0.3,1-0.4,2-0.4,3s0.2,2,0.4,3H67.5z"/>
		<path fill="#3B52A0" d="M99.9,109.5c5.9-9,16.1-15,27.6-15s21.7,6,27.6,15h29.4v-24h-114v24H99.9z M82.5,93c2.5,0,4.5,2,4.5,4.5
			s-2,4.5-4.5,4.5s-4.5-2-4.5-4.5S80,93,82.5,93z"/>
		<path fill="#FFFFFF" d="M154,172.5c0-1,0.2-2,0.4-3H70.5v-54h26.3c-1.5,3.7-2.3,7.8-2.3,12c0,18.2,14.8,33,33,33s33-14.8,33-33
			c0-4.2-0.8-8.3-2.3-12h26.3v23.9c1-0.3,2-0.4,3-0.4s2,0.2,3,0.4V82.5c0-1.7-1.3-3-3-3h-120c-1.7,0-3,1.3-3,3v90c0,1.7,1.3,3,3,3
			h86.9C154.2,174.5,154,173.5,154,172.5z M184.5,85.5v24h-29.4c-5.9-9-16.1-15-27.6-15s-21.7,6-27.6,15H70.5v-24H184.5z
			 M154.5,127.5c0,14.9-12.1,27-27,27s-27-12.1-27-27s12.1-27,27-27S154.5,112.6,154.5,127.5z"/>
		<path fill="#3B52A0" d="M127.5,100.5c-14.9,0-27,12.1-27,27s12.1,27,27,27s27-12.1,27-27S142.4,100.5,127.5,100.5z M145.5,127.5
			c0,9.9-8.1,18-18,18s-18-8.1-18-18s8.1-18,18-18S145.5,117.6,145.5,127.5z"/>
		<path fill="#3B52A0" d="M115.5,127.5c0,6.6,5.4,12,12,12s12-5.4,12-12s-5.4-12-12-12S115.5,120.9,115.5,127.5z"/>
		<path fill="#FFFFFF" d="M127.5,109.5c-9.9,0-18,8.1-18,18s8.1,18,18,18s18-8.1,18-18S137.4,109.5,127.5,109.5z M139.5,127.5
			c0,6.6-5.4,12-12,12s-12-5.4-12-12s5.4-12,12-12S139.5,120.9,139.5,127.5z"/>
		<circle fill="#3B52A0" cx="82.5" cy="97.5" r="1.5"/>
		<path fill="#FFFFFF" d="M82.5,102c2.5,0,4.5-2,4.5-4.5S85,93,82.5,93S78,95,78,97.5S80,102,82.5,102z"/>
		<path fill="#FFFFFF" d="M213,172.5c0-1.7-1.3-3-3-3h-19.5V150c0-1.7-1.3-3-3-3s-3,1.3-3,3v19.5H165c-1.7,0-3,1.3-3,3s1.3,3,3,3
			h19.5V195c0,1.7,1.3,3,3,3s3-1.3,3-3v-19.5H210C211.7,175.5,213,174.2,213,172.5z"/>
	</g>
</g>
<g id="Layer_4">
</g>
</svg>
