<?xml version="1.0" encoding="utf-8"?>
<!-- Generator: Adobe Illustrator 18.1.1, SVG Export Plug-In . SVG Version: 6.00 Build 0)  -->
<svg version="1.1" xmlns="http://www.w3.org/2000/svg" xmlns:xlink="http://www.w3.org/1999/xlink" x="0px" y="0px"
	 viewBox="0 0 255 255" enable-background="new 0 0 255 255" xml:space="preserve">
<g id="preview">
	<rect y="0" fill="#69B03A" width="255" height="255"/>
</g>
<g id="Layer_1">
	<g id="Question-Mark_3">
	</g>
	<g>
		<path fill="#FFFFFF" d="M183,97.5c0-0.2,0-0.4-0.1-0.6c0,0,0,0,0,0c0-0.2-0.1-0.3-0.1-0.5c0-0.1,0-0.1-0.1-0.1
			c-0.1-0.1-0.1-0.2-0.2-0.3c0,0-0.1-0.1-0.1-0.1c-0.1-0.1-0.2-0.2-0.3-0.4c0,0,0,0,0,0c0,0,0,0,0,0l0,0l-37.5-37.5l0,0
			c-0.2-0.2-0.3-0.3-0.5-0.4c0,0,0,0,0,0c-0.6-0.3-1.2-0.5-1.9-0.4l-59.7,0c-0.8,0-1.6,0.3-2.1,0.9c-0.6,0.6-0.9,1.3-0.9,2.1v127.4
			c0,1.7,1.3,3,3,3H180c0.8,0,1.6-0.3,2.1-0.9c0.6-0.6,0.9-1.3,0.9-2.1L183,97.5C183,97.5,183,97.5,183,97.5z M152.6,94.3
			c-3.2,0-5.5,0-7.1,0c0.1-13.5,0.2-21.8,0.2-26.9l27,27C166.9,94.4,158.9,94.3,152.6,94.3z M85.5,184.5V63.1l54.2,0
			c0.1,4.6,0,14.6-0.1,23.9H105c-1.7,0-3,1.3-3,3s1.3,3,3,3h34.5c0,1.5,0,3,0,4.4c0,0,0,0,0,0l0,0c0,0,0,0,0,0c0,0.1,0,0.3,0,0.4
			c0,0.1,0,0.2,0,0.4c0,0.1,0.1,0.2,0.1,0.4c0,0.1,0.1,0.2,0.1,0.3c0.1,0.1,0.2,0.2,0.3,0.3c0.1,0.1,0.1,0.2,0.2,0.3
			c0.2,0.2,0.3,0.3,0.5,0.4c0,0,0.1,0.1,0.1,0.1l0,0c0,0,0,0,0,0c0,0,0,0,0,0c0.2,0.1,0.4,0.2,0.7,0.3c0.1,0,0.1,0,0.2,0
			c0.2,0.1,0.4,0.1,0.6,0.1c0,0,0,0,0.1,0c0,0,0,0,0,0c0.2,0,0.4,0,0.6-0.1c0.4,0,2.2-0.1,9.4-0.1c8.1,0,19.2,0.1,24.5,0.1l0,84
			H85.5z"/>
		<path fill="#FFFFFF" d="M127.5,7.5c-66.3,0-120,53.7-120,120c0,66.3,53.7,120,120,120c66.3,0,120-53.7,120-120
			C247.5,61.2,193.8,7.5,127.5,7.5z M208.1,208.1c-21.5,21.5-50.2,33.4-80.6,33.4c-30.5,0-59.1-11.9-80.6-33.4
			c-21.5-21.5-33.4-50.2-33.4-80.6c0-30.5,11.9-59.1,33.4-80.6C68.4,25.4,97,13.5,127.5,13.5s59.1,11.9,80.6,33.4
			s33.4,50.2,33.4,80.6S229.6,186.6,208.1,208.1z"/>
		<path fill="#FFFFFF" d="M105,115.5h52.5c1.7,0,3-1.3,3-3s-1.3-3-3-3H105c-1.7,0-3,1.3-3,3S103.3,115.5,105,115.5z"/>
		<path fill="#FFFFFF" d="M157.5,132H105c-1.7,0-3,1.3-3,3s1.3,3,3,3h52.5c1.7,0,3-1.3,3-3S159.2,132,157.5,132z"/>
		<path fill="#FFFFFF" d="M157.5,154.5H105c-1.7,0-3,1.3-3,3s1.3,3,3,3h52.5c1.7,0,3-1.3,3-3S159.2,154.5,157.5,154.5z"/>
	</g>
</g>
<g id="Layer_4">
	<g opacity="0.2">
		<circle fill="#FFFFFF" cx="127.5" cy="127.5" r="120"/>
	</g>
</g>
</svg>
