<?xml version="1.0" encoding="utf-8"?>
<!-- Generator: Adobe Illustrator 18.1.1, SVG Export Plug-In . SVG Version: 6.00 Build 0)  -->
<svg version="1.1" xmlns="http://www.w3.org/2000/svg" xmlns:xlink="http://www.w3.org/1999/xlink" x="0px" y="0px"
	 viewBox="0 0 255 255" enable-background="new 0 0 255 255" xml:space="preserve">
<g id="preview">
	<rect y="0" fill="#0A7DD2" width="255" height="255"/>
</g>
<g id="Layer_1">
	<g id="Question-Mark_3">
	</g>
	<g>
		<path fill="#FFFFFF" d="M127.5,7.5c-66.3,0-120,53.7-120,120c0,66.3,53.7,120,120,120c66.3,0,120-53.7,120-120
			C247.5,61.2,193.8,7.5,127.5,7.5z M208.1,208.1c-21.5,21.5-50.2,33.4-80.6,33.4s-59.1-11.9-80.6-33.4S13.5,158,13.5,127.5
			s11.9-59.1,33.4-80.6C68.4,25.4,97,13.5,127.5,13.5c30.5,0,59.1,11.9,80.6,33.4c21.5,21.5,33.4,50.2,33.4,80.6
			C241.5,158,229.6,186.6,208.1,208.1z"/>
		<path fill="#FFFFFF" d="M204.3,112.3l1.6-1.2l-0.5-1.9c-2-8.7-5.3-16.7-9.7-23.7l-1-1.7l-2,0.3c-1,0.1-2,0.2-3,0.2
			c-5.1,0-9.9-2-13.4-5.5c-4.3-4.3-6.2-10.3-5.3-16.4l0.3-2l-1.7-1c-7.1-4.4-15.1-7.7-23.8-9.7l-1.9-0.5l-1.2,1.6
			c-3.7,4.9-9.2,7.7-15.2,7.7c-6.1,0-11.7-2.9-15.3-7.8l-1.2-1.6l-1.9,0.5c-8.2,1.9-16.2,5.3-23.7,9.9l-1.7,1l0.3,2
			c0.9,6.1-1,12-5.3,16.3c-3.6,3.6-8.3,5.5-13.4,5.5c-1,0-1.9-0.1-2.9-0.2l-1.9-0.3l-1,1.7c-4.4,7.1-7.7,15.1-9.8,23.8l-0.5,1.9
			l1.6,1.2c4.9,3.7,7.7,9.2,7.7,15.2c0,6.1-2.9,11.7-7.8,15.3l-1.6,1.2l0.5,1.9c2,8.2,5.3,16.2,9.9,23.6l1,1.7l2-0.3
			c1-0.1,1.9-0.2,2.9-0.2c5.1,0,9.9,2,13.4,5.5c4.3,4.3,6.2,10.2,5.3,16.2l-0.3,1.9l1.7,1c7.1,4.4,15.1,7.7,23.8,9.8l1.9,0.5
			l1.2-1.6c3.7-4.9,9.2-7.7,15.2-7.7c6.1,0,11.7,2.9,15.3,7.8l1.2,1.6l1.9-0.5c8.2-1.9,16.2-5.3,23.7-9.9l1.7-1l-0.3-2
			c-0.9-6.1,1-12.1,5.3-16.3c3.6-3.6,8.3-5.5,13.4-5.5c0.9,0,1.9,0.1,2.8,0.2l1.9,0.3l1-1.7c4.4-7.1,7.7-15.1,9.8-23.7l0.5-1.9
			l-1.6-1.2c-4.9-3.7-7.7-9.2-7.7-15.2C196.5,121.5,199.4,116,204.3,112.3z M190.5,127.6c0,7.3,3.1,14,8.5,18.8
			c-1.8,6.7-4.4,12.9-7.7,18.6c-7.3-0.5-14.2,2.1-19.3,7.2c-5.2,5.2-7.7,12.2-7.2,19.4c-5.9,3.4-12.1,6-18.4,7.7
			c-4.7-5.5-11.7-8.7-18.9-8.7c-7.2,0-14,3.1-18.7,8.5c-6.7-1.8-12.9-4.4-18.6-7.7c0.5-7.2-2.1-14.2-7.2-19.3
			c-5.1-5.1-12.1-7.7-19.4-7.2c-3.4-5.9-6-12.1-7.7-18.4c5.5-4.8,8.7-11.6,8.7-18.9c0-7.3-3.1-14-8.5-18.7c1.8-6.7,4.4-13,7.7-18.6
			C71,90.7,77.9,88.1,83,83c5.2-5.2,7.7-12.2,7.2-19.4c5.9-3.4,12.1-6,18.4-7.7c4.8,5.5,11.6,8.7,18.9,8.7c7.3,0,14-3.1,18.8-8.6
			c6.7,1.8,12.9,4.3,18.5,7.5c-0.5,7.2,2.1,14.4,7.2,19.5c5.1,5.1,12.2,7.8,19.5,7.2c3.3,5.6,5.8,11.8,7.5,18.5
			C193.7,113.5,190.5,120.3,190.5,127.6z"/>
		<path fill="#FFFFFF" d="M124.5,94.5h-30v30v6v30h30h6h30v-66h-30H124.5z M130.5,100.5h24v24h-24V100.5z M130.5,130.5h24v24h-24
			V130.5z M100.5,100.5h24v24h-24V100.5z M124.5,154.5h-24v-24h24V154.5z"/>
	</g>
</g>
<g id="Layer_4">
	<g opacity="0.2">
		<circle fill="#FFFFFF" cx="127.5" cy="127.5" r="120"/>
	</g>
</g>
</svg>
