<?xml version="1.0" encoding="utf-8"?>
<!-- Generator: Adobe Illustrator 18.1.1, SVG Export Plug-In . SVG Version: 6.00 Build 0)  -->
<svg version="1.1" xmlns="http://www.w3.org/2000/svg" xmlns:xlink="http://www.w3.org/1999/xlink" x="0px" y="0px"
	 viewBox="0 0 255 255" enable-background="new 0 0 255 255" xml:space="preserve">
<g id="preview" display="none">
	<rect y="0" display="inline" fill="#69B03A" width="255" height="255"/>
</g>
<g id="Layer_1">
	<g id="Question-Mark_3">
	</g>
	<g>
		<path fill="#FFFFFF" d="M127.5,7.5c-66.3,0-120,53.7-120,120c0,66.3,53.7,120,120,120s120-53.7,120-120
			C247.5,61.2,193.8,7.5,127.5,7.5z M127.5,241.5c-30.5,0-59.1-11.9-80.6-33.4c-21.5-21.5-33.4-50.2-33.4-80.6
			c0-30.5,11.9-59.1,33.4-80.6C68.4,25.4,97,13.5,127.5,13.5s59.1,11.9,80.6,33.4s33.4,50.2,33.4,80.6c0,30.5-11.9,59.1-33.4,80.6
			C186.6,229.6,158,241.5,127.5,241.5z"/>
		<path fill="#FFFFFF" d="M203.2,57.1l-60-15c0,0-0.1,0-0.1,0c-0.1,0-0.2,0-0.3,0c-0.1,0-0.2,0-0.4,0c-0.1,0-0.2,0-0.3,0
			c-0.1,0-0.2,0-0.4,0.1c-0.1,0-0.1,0-0.2,0l-22.5,7.5c-1.2,0.4-2.1,1.6-2.1,2.8v8.7c-6-2.7-12.6-4.2-19.5-4.2
			c-26.5,0-48,21.5-48,48c0,17.1,9,32.1,22.5,40.6v4.4c0,0,0,0,0,0v30c0,0,0,0,0,0v22.5c0,1.7,1.3,3,3,3h97.5c1.7,0,3-1.3,3-3V180
			c0,0,0,0,0,0v-12.7l27.7-6.9c1.3-0.3,2.3-1.5,2.3-2.9V60C205.5,58.6,204.6,57.4,203.2,57.1z M199.5,155.2l-24,6V150c0,0,0,0,0,0
			v-22.5c0-1.7-1.3-3-3-3h-27V48.8l54,13.5V155.2z M157.2,199.5l12.3-12.3v12.3H157.2z M169.5,178.8l-20.7,20.7h-50L78,178.8v-27.5
			l20.7-20.7h50l20.7,20.7V178.8z M97.5,63c7,0,13.7,1.7,19.5,4.8v56.7H75c-1.7,0-3,1.3-3,3v10.8c-10-7.7-16.5-19.8-16.5-33.3
			C55.5,81.8,74.3,63,97.5,63z M169.5,142.8l-12.3-12.3h12.3V142.8z M78,130.5h12.3L78,142.8V130.5z M139.5,49.2v75.3H123V54.7
			L139.5,49.2z M78,187.2l12.3,12.3H78V187.2z"/>
		<path fill="#FFFFFF" d="M95.4,122.1c0.6,0.6,1.4,0.9,2.1,0.9s1.5-0.3,2.1-0.9l15-15c0.9-0.9,1.1-2.1,0.7-3.3
			c-0.5-1.1-1.6-1.9-2.8-1.9H108V90c0-1.7-1.3-3-3-3H90c-1.7,0-3,1.3-3,3v12h-4.5c-1.2,0-2.3,0.7-2.8,1.9c-0.5,1.1-0.2,2.4,0.7,3.3
			L95.4,122.1z M90,108c1.7,0,3-1.3,3-3V93h9v12c0,1.7,1.3,3,3,3h0.3l-7.8,7.8l-7.8-7.8H90z"/>
	</g>
</g>
<g id="Layer_4" display="none">
	<g display="inline" opacity="0.2">
		<circle fill="#FFFFFF" cx="127.5" cy="127.5" r="120"/>
	</g>
</g>
</svg>
