<?xml version="1.0" encoding="utf-8"?>
<!-- Generator: Adobe Illustrator 21.0.0, SVG Export Plug-In . SVG Version: 6.00 Build 0)  -->
<svg version="1.1" id="Ebene_1" xmlns="http://www.w3.org/2000/svg" xmlns:xlink="http://www.w3.org/1999/xlink" x="0px" y="0px"
	 viewBox="0 0 21 21" style="enable-background:new 0 0 21 21;" xml:space="preserve">
<style type="text/css">
	.st0{fill:#8C8C8C;}
	.st1{fill:none;stroke:#8C8C8C;stroke-width:0.75;stroke-miterlimit:10;}
	.st2{fill-rule:evenodd;clip-rule:evenodd;fill:#8B8B8B;}
</style>
<path class="st0" d="M12.1,3.7L1.4,6.3C0.9,6.4,0.3,6.1,0.2,5.5l0,0C0.1,5,0.4,4.5,0.9,4.3l10.7-2.6c0.5-0.1,1.1,0.2,1.2,0.7l0,0
	C12.9,3,12.6,3.5,12.1,3.7z"/>
<g>
	<path class="st0" d="M14,6H5C3.9,6,3,6.9,3,8v11c0,1.1,0.9,2,2,2h9c1.1,0,2-0.9,2-2V8C16,6.9,15.1,6,14,6z M6.8,19H5V8h1.8V19z
		 M10.4,19H8.6V8h1.8V19z M14,19h-1.8V8H14V19z"/>
</g>
<rect x="4.5" y="1.5" transform="matrix(0.9719 -0.2352 0.2352 0.9719 -0.4057 1.5989)" class="st1" width="4" height="2"/>
<path class="st2" d="M16.4,4.3L13,5l1.4-3.4l0.6,0.9c0,0,1.8-3.1,6.1-1c0,0,0,0,0,0s-1.9,0.1-3.4,0.7c-1.3,0.6-1.9,1.5-1.9,1.5
	L16.4,4.3z"/>
</svg>
