<?xml version="1.0" encoding="utf-8"?>
<!-- Generator: Adobe Illustrator 21.0.0, SVG Export Plug-In . SVG Version: 6.00 Build 0)  -->
<svg version="1.1" id="Ebene_1" xmlns="http://www.w3.org/2000/svg" xmlns:xlink="http://www.w3.org/1999/xlink" x="0px" y="0px"
	 viewBox="0 0 26 26" style="enable-background:new 0 0 26 26;" xml:space="preserve">
<style type="text/css">
	.st0{fill:#2271B4;}
	.st1{fill-rule:evenodd;clip-rule:evenodd;fill:#FFFFFF;}
</style>
<g>
	<circle class="st0" cx="13" cy="13" r="13"/>
</g>
<path class="st1" d="M9.6,3.9C9,4.3,8.3,4.6,7.9,5.1C7.4,5.9,7.2,6.9,7.1,7.8c-0.2,2,0.3,4,1.1,5.8c1.3,3.1,3.6,6.9,6.8,8.3
	c1.3,0.6,2,0,3.2-0.6c0.9-0.5,1.6-1,1-2.1c-0.3-0.6-0.8-1.2-1.1-1.8C17.8,17,17.5,16.2,17,16c-1.1-0.5-1.9,1.1-3.1,0.5
	c-1.8-0.9-3-3.8-3-5.6c0-1.1,0.6-1.4,1.4-2c0.9-0.6,0.9-1.1,0.5-2c-0.4-0.8-0.7-1.6-1.1-2.4C11.1,3.5,10.5,3.4,9.6,3.9z"/>
</svg>
