<?xml version="1.0" encoding="utf-8"?>
<!-- Generator: Adobe Illustrator 21.0.0, SVG Export Plug-In . SVG Version: 6.00 Build 0)  -->
<svg version="1.1" id="Ebene_1" xmlns="http://www.w3.org/2000/svg" xmlns:xlink="http://www.w3.org/1999/xlink" x="0px" y="0px"
	 viewBox="0 0 15 15" style="enable-background:new 0 0 15 15;" xml:space="preserve">
<style type="text/css">
	.st0{fill-rule:evenodd;clip-rule:evenodd;fill:#8C8C8C;}
</style>
<path class="st0" d="M8.8,5.5l1.5-1.3C9.5,3.6,8.3,3,7.3,3C5.2,3,3.5,4.4,3,6.3L0,5.6C0.8,2.4,3.8,0,7.2,0c1.9,0,4,1,5.3,2.2
	l1.4-1.2L15,7.2L8.8,5.5z M4.7,10.8c0.8,0.6,2,1.2,3,1.2c2.1,0,3.8-1.4,4.3-3.3l3,0.8c-0.8,3.2-3.7,5.6-7.2,5.6c-1.9,0-4-1-5.3-2.2
	l-1.4,1.2L0,7.8l6.2,1.6L4.7,10.8z"/>
</svg>
